<svg xmlns="http://www.w3.org/2000/svg" viewBox="0 0 1550 720" fill="none"><style>.logo-letter{stroke:#bcf1fd;stroke-width:10px;fill:url(#flake-gradient)}</style><defs><linearGradient id="flake-gradient" x1="0" y1="1" x2="0" y2="0"><stop offset="0%" stop-color="#77d4f7"/><stop offset="49%" stop-color="#5fcbf2"/><stop offset="50%" stop-color="#bcf1fd"/><stop offset="51%" stop-color="#bcf1fd"/><stop offset="100%" stop-color="#bcf1fd"/></linearGradient></defs><path d="M110 80h210l-15 70H165l-15 70h135l-15 70H135L90 500l-70 50 75-400-50-70Z" class="logo-letter"/><path d="M360 80h70l-75 350h210l-20 70H270Z" class="logo-letter"/><path d="M760 80h50l90 420h-70l-35-140h-70l-40 140h-70l90-350-50-70Zm10 105 20 120h-55Z" fill-rule="evenodd" class="logo-letter"/><g class="logo-letter"><path d="M980 80h70l-20 140 85-140h95l-115 175 125 245h-85l-90-190-15 25-45 215-70 50 70-450-50-70Z" fill-rule="evenodd"/><path d="M1180 170h25v25h-25Z"/><path d="M1205 145h25v25h-25Z"/><path d="M1230 120h25v25h-25Z"/></g><path d="M1310 80h210l-15 70h-140l-15 70h135l-15 70h-135l-15 70h150l-15 70h-220Z" class="logo-letter"/><text x="60" y="640" style="font-family:Arial,sans-serif;font-size:125px;font-weight:700;fill:#bcf1fd;letter-spacing:70px">CLIENT</text><svg xmlns="http://www.w3.org/2000/svg" x="370" y="140" viewBox="-100 -100 200 200" width="300" height="300"><defs><path d="M0 0v-90m0 20-15-10M0-70l15-10M0-45l-25-15M0-45l25-15" style="stroke:#edfbfe;stroke-width:10;stroke-linecap:round;transform:scale(.8) rotate(5deg)" id="branch"/></defs><use href="#branch"/><use href="#branch" transform="rotate(60)"/><use href="#branch" transform="rotate(120)"/><use href="#branch" transform="rotate(180)"/><use href="#branch" transform="rotate(240)"/><use href="#branch" transform="rotate(300)"/></svg></svg>